<svg  viewBox="0 0 16 16" fill="none" xmlns="http://www.w3.org/2000/svg">
<path d="M7.99406 10.9302C6.73997 10.9302 5.40862 10.7519 4.19614 10.4428C3.97028 10.0981 3.80386 9.72957 3.7266 9.35513C5.00446 9.71768 6.49034 9.96731 8 9.96731C9.50966 9.96731 10.9955 9.71768 12.2793 9.35513C12.1902 9.72957 12.0297 10.0981 11.8098 10.4428C10.5973 10.7459 9.26597 10.9302 8 10.9302H7.99406ZM7.99406 13.3492C10.6805 13.3492 12.838 11.3759 13.1352 9.03418C13.2006 8.56464 12.8915 8.35067 12.4755 8.46954C10.9658 8.9153 9.55126 9.16493 7.99406 9.16493C6.43685 9.16493 5.03417 8.9153 3.51857 8.46954C3.10253 8.35067 2.79941 8.56464 2.85884 9.03418C3.15007 11.3759 5.30163 13.3492 7.99406 13.3492ZM10.312 7.29866C10.8053 7.29866 11.2452 6.8529 11.2452 6.22288C11.2452 5.59287 10.8053 5.14116 10.312 5.14116C9.81872 5.14116 9.38484 5.59287 9.38484 6.22288C9.38484 6.8529 9.81872 7.29866 10.312 7.29866ZM5.66419 7.29866C6.16345 7.29866 6.60327 6.8529 6.60327 6.22288C6.60327 5.59287 6.16345 5.14116 5.66419 5.14116C5.16493 5.14116 4.74889 5.59287 4.74889 6.22288C4.74889 6.8529 5.17088 7.29866 5.66419 7.29866ZM8 14.6389C4.31501 14.6389 1.36107 11.685 1.36107 7.99406C1.36107 4.30312 4.30906 1.35513 7.99406 1.35513C11.679 1.35513 14.6449 4.30906 14.6449 8C14.6449 11.6909 11.6909 14.6449 8 14.6449V14.6389ZM8 15.9941C12.3744 15.9941 16 12.3685 16 7.99406C16 3.61961 12.3744 0 7.99406 0C3.61367 0 0 3.62556 0 8C0 12.3744 3.62556 16 8 16V15.9941Z" fill="#B3B3B3"/>
</svg>
